Simulation
nRows=38
nColumns=15
endheader
time  TH_x TH_y TH_z SC_y  SC_z  SC_x  AC_y  AC_z  AC_x  GH_y  GH_z  GH_yy  EL_x  PS_y
1.4749999999999996  0.000000  0.000000  0.000000  -35.69884693106206  6.354397998582585  27.813498511756126  49.49111596320161  18.23034163272983  9.76336085190342  -16.770467684500282  33.708048425310615  -2.4541949860298704  23.587949210457086  120.000000
1.5044999999999995  0.000000  0.000000  0.000000  -35.80148741499868  6.317187267800321  28.075959651564766  49.60656760604539  18.142533117149306  9.888456322893846  -17.10808591849332  33.80573768388379  -2.0890760594826556  23.649583475094747  120.000000
1.5339999999999996  0.000000  0.000000  0.000000  -35.8218259117181  6.272987905835376  28.265698661763228  49.69278656680111  18.052334803717848  9.876658083083386  -17.268705931535237  33.76192433367463  -1.7725035923437684  23.667315942249743  120.000000
1.5634999999999994  0.000000  0.000000  0.000000  -35.75277877163284  6.223821845992285  28.384391174270153  49.745641382716975  17.95323953172056  9.706878133855746  -17.246937433859422  33.57003068675584  -1.5133759824892123  23.645596395516343  120.000000
1.5929999999999995  0.000000  0.000000  0.000000  -35.59814135573735  6.1697728184823815  28.4352982537297  49.76331381828421  17.84141462379655  9.364224467447992  -17.03703222471888  33.22055923106094  -1.3358657856045904  23.588920595663794  120.000000
1.6224999999999996  0.000000  0.000000  0.000000  -35.37474661225743  6.111248415454045  28.421396680622404  49.75044762355854  17.71571324772207  8.84329167323879  -16.633162460449434  32.70250937139194  -1.2785748657637261  23.502106787303916  120.000000
1.6519999999999995  0.000000  0.000000  0.000000  -35.11259926913625  6.052888334764538  28.340551703901752  49.72376966070845  17.57609526683007  8.151290373111783  -16.02914538482632  32.00809237788644  -1.389391727423421  23.39113262217731  120.000000
1.6814999999999996  0.000000  0.000000  0.000000  -34.851291595396795  6.006201080944668  28.17949511294443  49.71498418358665  17.420078940216914  7.310886805015678  -15.2179103486539  31.14055495339377  -1.716669843454299  23.263398323048456  120.000000
1.7109999999999994  0.000000  0.000000  0.000000  -34.63207729003276  5.986512607657795  27.911507633090853  49.76595801032748  17.23738791365753  6.361755446577066  -14.191545370504901  30.122571779325312  -2.297344562234006  23.12726924510585  120.000000
1.7404999999999995  0.000000  0.000000  0.000000  -34.48792621169701  6.003635438287707  27.4975736617168  49.9161931480323  17.007243262291613  5.362130975390959  -12.942611403341848  29.0021491224785  -3.144671510066281  22.990780708956773  120.000000
1.7699999999999996  0.000000  0.000000  0.000000  -34.43477309093581  6.053270993919887  26.890580681903323  50.18643413514192  16.702345871222576  4.388436582451303  -11.46861760791448  27.85151145594615  -4.239196592856777  22.8589639202519  120.000000
1.7994999999999994  0.000000  0.000000  0.000000  -34.466286499657784  6.116109650897869  26.042080093584566  50.56720761690788  16.29919549671557  3.525614774061631  -9.779940692689275  26.756628447177945  -5.526804314707055  22.730267698153042  120.000000
1.8289999999999995  0.000000  0.000000  0.000000  -34.55476449457437  6.163875110398745  24.910404431079264  51.016599305400725  15.790911786834313  2.8508470043690353  -7.906666128885418  25.798556180976984  -6.923102653728694  22.594077824472844  120.000000
1.8584999999999994  0.000000  0.000000  0.000000  -34.657543709663926  6.169193031478059  23.468573578373245  51.468480485781576  15.196295151016635  2.418897534191277  -5.899827294563004  25.03228364666264  -8.323819460277104  22.431842044259838  120.000000
1.8879999999999995  0.000000  0.000000  0.000000  -34.725692575184766  6.11445879477904  21.71171512371009  51.84748775413469  14.55974690241583  2.2542165952352446  -3.8252795881017865  24.471529753926113  -9.618626797303381  22.222616620811134  120.000000
1.9174999999999995  0.000000  0.000000  0.000000  -34.71229647837062  5.996630088540654  19.66225768591451  52.085997770832066  13.940913284685173  2.3502660883971145  -1.753036877294661  24.085975463829087  -10.706106982451526  21.950943135182875  120.000000
1.9469999999999994  0.000000  0.000000  0.000000  -34.57984949598493  5.826491525013418  17.36986059753451  52.13831517986452  13.398805002916298  2.675327479376953  0.25365039089066377  23.81236258983795  -11.507596893944402  21.612851212908293  120.000000
1.9764999999999995  0.000000  0.000000  0.000000  -34.30612561790651  5.623641128119515  14.904595284973663  51.98744825674253  12.97818181117996  3.183535318957574  2.1457628211140936  23.57379691299758  -11.977275082644105  21.217256784305825  120.000000
2.0059999999999993  0.000000  0.000000  0.000000  -33.8870322947227  5.409913737254211  12.348184747581557  51.64462678469842  12.700643697285383  3.8240428750456674  3.891395548954209  23.29948621910098  -12.106534219935936  20.783335098738952  120.000000
2.0354999999999994  0.000000  0.000000  0.000000  -33.33698790010395  5.203172130314097  9.784702957159599  51.143717805352836  12.563768575379456  4.54775677225601  5.475120274956159  22.937357060380663  -11.9224339831523  20.335929977796503  120.000000
2.0649999999999995  0.000000  0.000000  0.000000  -32.686639577277425  5.013932175234572  7.28659829471829  50.5331448756992  12.55035159417706  5.3148892813533495  6.895192320422588  22.457821256628648  -11.480869524988146  19.90042296869613  120.000000
2.0944999999999996  0.000000  0.000000  0.000000  -31.978282766133034  4.844195414415738  4.908732838194694  49.86689368345671  12.6366565153149  6.09616162165647  8.160997335630304  21.850781241983437  -10.854976056697597  19.498947858363863  120.000000
2.123999999999999  0.000000  0.000000  0.000000  -31.25930226545098  4.689195257173204  2.6880787192319233  49.19621791104794  12.79843604473434  6.870818551042995  9.290585742701413  21.1197099693987  -10.121802970388295  19.14793910659203  120.000000
2.1534999999999993  0.000000  0.000000  0.000000  -30.574486598964064  4.541439554997496  0.6445273443501641  48.562357341020984  13.015414527177834  7.625350704620485  10.309476112690295  20.27615095076358  -9.349712168396367  18.85644975547075  120.000000
2.1829999999999994  0.000000  0.000000  0.000000  -29.958970577928586  4.394294539974003  -1.2156002278710776  47.992087137468786  13.272404458742436  8.350984175722212  11.24970047262053  19.3360553631957  -8.588525639126635  18.625612243419535  120.000000
2.2124999999999995  0.000000  0.000000  0.000000  -29.432562297771923  4.245334836187325  -2.8957746711521817  47.495352624822765  13.557819052012736  9.041668472645052  12.149189421880198  18.317740803177703  -7.863960770111104  18.448807806795624  120.000000
2.2419999999999995  0.000000  0.000000  0.000000  -28.997781516206093  4.097838572191718  -4.4051560468296405  47.06695927602024  13.861622144314069  9.692499290188065  13.049539420958894  17.240233962831468  -7.178123489056152  18.313537433894545  120.000000
2.271499999999999  0.000000  0.000000  0.000000  -28.642721670416254  3.9594724748993126  -5.755277909977211  46.69252333640266  14.174435181960945  10.299382164069918  13.992188859883615  16.122054280375504  -6.516492637504547  18.205133651171405  120.000000
2.3009999999999993  0.000000  0.000000  0.000000  -28.346234407837546  3.840305800697516  -6.957978698539494  46.3558432836008  14.487050778849431  10.859908209619551  15.012849107508861  14.980299516245076  -5.8582974421462435  18.111207376603936  120.000000
2.3304999999999993  0.000000  0.000000  0.000000  -28.0845347157472  3.749890950808166  -8.024713243658633  46.04514526492481  14.791339803102742  11.37422863052611  16.135241534397395  13.830054853944755  -5.187866625029584  18.025402315583356  120.000000
2.3599999999999994  0.000000  0.000000  0.000000  -27.838005652566743  3.6938272490301234  -8.966475958951799  45.75705754339401  15.080995957232723  11.845320476508467  17.365270603130334  12.685245472799384  -4.503647454063697  17.94889679444628  120.000000
2.3894999999999995  0.000000  0.000000  0.000000  -27.595606198473497  3.672146107125812  -9.793532955759963  45.49709990485788  15.351464557724187  12.27919363105176  18.68869093580506  11.558841706402932  -3.8215963320753237  17.889445198126687  120.000000
2.418999999999999  0.000000  0.000000  0.000000  -27.355141823739142  3.6800548050806436  -10.51589696438255  45.2773390574407  15.599500048612722  12.683825563347282  20.07373913894676  10.46310028574743  -3.17082060695604  17.8589827243619  120.000000
2.4484999999999992  0.000000  0.000000  0.000000  -27.12058387476725  3.7096449067157087  -11.143837339399925  45.11183678820714  15.823237370210162  13.067165127441674  21.478153374611885  9.409459329097926  -2.584257541911465  17.87040281807854  120.000000
2.4779999999999993  0.000000  0.000000  0.000000  -26.898695208195182  3.7519483315707625  -11.687615952783487  45.01069441946027  16.021891900641506  13.435824741472281  22.857692682204764  8.407963484638657  -2.088025339600702  17.934317724100392  120.000000
2.5074999999999994  0.000000  0.000000  0.000000  -26.695549144282914  3.799348208120445  -12.157399267685323  44.977259447327214  16.1955971524907  13.793818508774132  24.174116953344665  7.467141152777667  -1.6933205713258543  18.056779691583532  120.000000
2.5369999999999995  0.000000  0.000000  0.000000  -26.514025093382436  3.8470771033285818  -12.563145471693677  45.00770438450258  16.345681463610013  14.141972886661694  25.400755939650132  6.593839863027969  -1.3924423657524712  18.23843025473983  120.000000
2.566499999999999  0.000000  0.000000  0.000000  -26.353539290932627  3.8929253922296914  -12.914317973266622  45.09298663087034  16.474412190064434  14.478553393232824  26.52316417948183  5.79383372386889  -1.161321318213266  18.474532228559553  120.000000
